<?xml version="1.0" standalone="no"?>
<!DOCTYPE svg PUBLIC "-//W3C//DTD SVG 20010904//EN"
 "http://www.w3.org/TR/2001/REC-SVG-20010904/DTD/svg10.dtd">
<svg version="1.0" xmlns="http://www.w3.org/2000/svg"
 width="360.000000pt" height="360.000000pt" viewBox="0 0 360.000000 360.000000"
 preserveAspectRatio="xMidYMid meet">
<metadata>
Created by potrace 1.16, written by Peter Selinger 2001-2019
</metadata>
<g transform="translate(0.000000,360.000000) scale(0.100000,-0.100000)"
fill="#000000" stroke="none">
<path d="M725 3483 c-88 -10 -120 -31 -145 -98 -16 -41 3 -28 24 16 20 44 61
69 113 69 33 0 147 -53 137 -63 -4 -4 0 -7 8 -7 34 0 43 -64 11 -68 -13 -2
-23 -8 -23 -13 0 -5 -15 -9 -34 -9 -43 0 -149 -33 -201 -63 -45 -25 -116 -113
-108 -133 3 -8 0 -14 -6 -14 -6 0 -11 -8 -11 -17 1 -22 23 -53 38 -53 12 0 32
-59 25 -72 -2 -5 -11 -8 -20 -8 -11 0 -8 -7 12 -26 31 -29 28 -39 -10 -30 -19
5 -32 20 -46 53 -11 25 -22 43 -25 40 -3 -2 3 -22 12 -43 10 -22 18 -43 18
-49 1 -5 10 -18 21 -27 20 -17 20 -17 -5 -14 -35 4 -61 16 -54 27 3 5 -2 9
-10 9 -8 0 -20 8 -25 18 -6 9 -11 12 -11 6 0 -6 23 -32 50 -58 54 -50 59 -61
34 -70 -8 -3 -13 -2 -10 3 3 5 -7 14 -23 21 -28 11 -44 31 -46 56 -1 16 -26
44 -39 44 -29 0 -63 98 -49 144 4 15 7 16 14 5 7 -12 9 -11 8 1 0 8 -4 23 -8
33 -5 14 -10 7 -21 -32 -7 -27 -17 -48 -22 -45 -5 3 -6 10 -3 15 3 5 -2 6 -11
2 -10 -4 -15 -2 -12 3 4 5 0 20 -8 34 -14 23 -14 21 -8 -30 3 -30 15 -74 26
-98 27 -56 117 -135 198 -173 63 -30 64 -31 43 -47 -12 -10 -23 -29 -25 -44
l-3 -27 -70 43 c-77 46 -152 72 -183 62 -56 -18 -131 -135 -153 -237 -14 -64
-6 -178 16 -239 9 -25 23 -90 31 -145 17 -115 65 -293 100 -374 18 -39 47 -77
98 -126 58 -54 77 -80 86 -114 10 -40 29 -74 76 -139 12 -16 17 -47 18 -115 1
-50 7 -101 13 -112 6 -11 13 -56 17 -100 5 -72 3 -85 -19 -134 -14 -30 -23
-61 -20 -68 2 -8 1 -12 -4 -9 -12 8 -44 -61 -35 -76 4 -6 3 -8 -3 -5 -6 4 -14
0 -17 -9 -8 -22 -8 -26 3 -20 5 4 7 -3 4 -15 -4 -12 -9 -16 -12 -10 -7 10 -71
-106 -71 -127 0 -14 -73 -188 -115 -277 -40 -83 -52 -121 -36 -111 6 4 11 13
11 21 0 8 10 24 22 35 19 18 20 22 8 30 -13 8 -12 10 4 10 12 0 16 5 12 15 -3
8 -1 15 5 15 10 0 9 -16 -8 -75 l-5 -20 16 20 c12 15 16 17 17 5 0 -8 7 3 14
25 8 22 14 32 14 23 1 -9 6 -20 13 -24 8 -5 9 -2 5 10 -5 14 -3 17 8 12 9 -3
15 0 15 10 0 8 -5 12 -10 9 -15 -9 -12 6 5 25 13 14 19 39 24 98 0 7 6 10 11
7 7 -4 6 -13 -1 -27 -10 -18 -9 -20 5 -15 13 5 15 3 7 -12 -6 -10 -8 -21 -5
-24 5 -5 -45 -107 -57 -117 -4 -3 -1 -11 7 -18 12 -11 16 -9 24 13 6 15 10 32
10 39 0 7 9 25 20 39 11 14 20 35 20 46 0 12 4 21 9 21 10 0 18 30 26 93 3 21
10 47 15 57 13 24 13 30 0 30 -5 0 -10 -7 -10 -15 0 -9 -9 -25 -20 -37 -10
-12 -17 -26 -13 -32 3 -6 -2 -4 -12 5 -22 21 -12 88 10 69 10 -8 21 -2 45 27
21 25 30 31 26 18 -2 -11 -12 -54 -20 -97 -9 -42 -20 -87 -25 -100 -5 -12 -9
-26 -10 -31 0 -4 -8 -23 -16 -43 -17 -41 -20 -88 -5 -79 6 3 10 1 10 -4 0 -6
7 -11 15 -11 8 0 15 7 15 16 0 8 -4 12 -10 9 -5 -3 -8 0 -5 7 2 7 6 28 9 46 7
48 16 52 16 8 0 -33 2 -37 20 -31 15 5 18 3 14 -9 -3 -9 -9 -14 -13 -11 -4 2
-8 -2 -8 -10 0 -8 5 -15 11 -15 6 -1 0 -7 -14 -16 l-25 -15 24 7 c19 5 23 3
18 -10 -7 -19 -3 -20 24 -5 11 5 17 14 14 19 -3 5 0 12 6 16 8 4 9 3 5 -4 -10
-17 6 -15 32 4 23 16 30 6 10 -14 -19 -19 5 -13 32 8 28 22 50 26 50 9 0 -6
-7 -8 -16 -5 -11 4 -15 2 -11 -8 6 -15 -11 -36 -27 -36 -6 0 -2 7 8 15 11 8
16 15 10 15 -5 0 -20 -9 -34 -20 -21 -17 -22 -19 -5 -14 18 5 18 4 2 -6 -9 -6
-21 -9 -25 -6 -9 6 -47 -22 -40 -29 3 -3 13 1 21 9 11 12 16 13 20 3 2 -8 17
-3 47 17 50 33 98 44 78 17 -7 -9 -17 -19 -23 -23 -6 -5 -6 -8 0 -8 5 0 25 15
44 33 19 18 31 25 28 15 -3 -9 0 -19 8 -21 18 -7 25 2 25 30 0 13 4 23 9 23 5
0 12 8 15 17 3 10 3 -1 0 -25 -3 -28 -1 -41 6 -37 5 3 10 12 10 19 0 7 7 21
15 32 14 19 14 19 15 -2 0 -12 -10 -34 -22 -50 -29 -37 -33 -57 -8 -44 11 6
22 15 25 20 11 17 25 11 18 -7 -6 -16 -5 -17 12 -3 14 11 11 3 -9 -32 -31 -54
-29 -66 3 -15 11 17 29 42 41 55 20 21 21 26 9 104 -14 97 -6 267 16 353 18
68 65 157 86 163 8 3 5 -5 -8 -19 -46 -51 -73 -140 -89 -301 -8 -82 13 -266
38 -333 19 -53 19 -40 -3 36 -12 44 -11 47 18 90 16 24 60 102 97 174 37 72
78 143 91 158 l25 28 53 -44 c56 -46 130 -98 157 -111 8 -4 4 1 -10 11 -93 68
-144 110 -205 168 -83 79 -71 76 29 -8 189 -159 354 -235 484 -225 56 5 73 -8
20 -15 -30 -4 -31 -5 -10 -12 23 -8 29 -34 11 -52 -15 -15 5 -26 31 -18 15 5
20 15 20 41 0 19 3 33 8 33 24 -4 62 2 62 11 0 5 -8 6 -17 3 -12 -5 -15 -2
-10 10 4 10 2 17 -5 17 -6 0 -8 3 -5 6 4 4 13 2 21 -5 8 -7 16 -8 18 -3 1 4
31 27 65 51 34 24 74 60 88 81 30 43 22 43 130 -5 33 -15 68 -34 79 -43 37
-34 241 -147 298 -166 10 -3 15 -11 12 -19 -7 -19 22 -40 46 -34 16 4 20 0 20
-18 0 -13 5 -27 11 -31 6 -3 20 -27 30 -53 21 -47 65 -101 83 -101 5 0 -5 15
-23 34 -27 28 -30 34 -16 40 9 3 26 1 37 -5 15 -8 19 -8 14 0 -9 14 -5 14 37
-4 39 -16 83 -25 133 -27 18 -1 31 -5 29 -9 -3 -4 9 -11 27 -14 18 -4 56 -19
83 -34 72 -37 72 -37 35 -1 -56 54 -48 82 16 55 42 -17 44 -18 43 -7 -1 4 -1
13 0 21 2 20 77 8 113 -19 51 -38 49 -31 -46 141 -20 37 -45 104 -56 150 -44
178 -75 227 -225 347 -55 45 -149 126 -209 182 -75 68 -113 97 -120 90 -13
-13 -46 -13 -46 1 0 6 7 9 15 5 31 -12 13 22 -25 48 l-40 26 -38 -25 c-21 -14
-87 -45 -145 -70 -163 -67 -177 -81 -212 -199 -46 -163 -141 -272 -280 -322
-51 -19 -139 -18 -176 2 -16 8 -29 12 -29 9 0 -4 21 -15 46 -26 52 -23 54 -38
3 -16 -42 17 -288 178 -347 225 -23 19 -45 33 -47 30 -5 -5 140 -116 213 -163
23 -15 42 -29 42 -31 0 -2 -17 4 -37 13 -57 23 -172 106 -223 160 -25 26 -37
41 -27 34 9 -8 20 -11 23 -8 3 3 -15 19 -40 36 -24 17 -50 37 -58 43 -7 7 -29
14 -48 15 -26 2 -30 0 -16 -5 17 -7 17 -9 4 -15 -10 -3 -19 0 -22 10 -4 9 1
17 12 20 16 4 14 9 -18 42 -20 20 -40 50 -44 66 -5 19 -10 25 -15 17 -5 -8 -8
0 -8 19 0 29 1 30 14 13 8 -11 17 -32 20 -47 3 -15 8 -26 10 -23 2 2 14 -6 27
-18 140 -134 453 -352 539 -376 69 -18 183 -8 252 24 110 50 193 172 213 312
5 40 18 88 27 108 29 60 96 111 193 146 137 49 224 114 256 191 14 34 14 37
-10 62 -16 18 -35 27 -55 27 -18 0 -28 -4 -24 -10 3 -5 19 -10 35 -10 23 0 31
-5 36 -25 19 -75 -87 -169 -255 -226 -117 -41 -188 -105 -211 -191 -12 -41
-24 -47 -51 -22 -16 14 -26 8 -139 -88 -183 -155 -190 -160 -224 -154 -70 14
-87 70 -35 114 18 15 64 55 103 90 53 47 76 61 91 56 11 -3 31 -7 45 -10 24
-3 24 -3 -2 8 -34 15 -37 31 -4 18 13 -5 27 -6 30 -3 3 4 6 -1 6 -10 0 -9 -5
-19 -10 -22 -6 -4 -8 -10 -5 -14 2 -5 -4 -16 -15 -26 -10 -9 -17 -22 -14 -28
5 -15 -33 -40 -41 -27 -3 5 1 23 10 39 22 44 20 59 -10 54 -30 -6 -51 -28 -35
-38 5 -3 10 -15 10 -26 0 -11 -5 -17 -10 -14 -6 4 -8 10 -5 15 10 17 -29 20
-53 4 l-26 -17 22 -8 c44 -17 37 -63 -11 -72 -22 -4 -22 -4 1 -6 27 -1 29 -21
2 -28 -11 -3 -18 -9 -15 -13 6 -10 -21 -21 -29 -13 -3 4 -6 14 -6 24 0 10 -4
20 -9 24 -5 3 -9 -8 -9 -25 1 -35 26 -47 60 -29 13 7 96 75 186 152 127 109
162 145 160 161 -2 12 -9 20 -16 18 -6 -1 -11 4 -10 10 5 25 -55 20 -87 -6
-25 -21 -26 -24 -9 -20 12 3 25 0 29 -6 6 -9 -1 -11 -24 -8 -18 3 -34 1 -37
-4 -3 -4 -12 -8 -21 -8 -11 0 -9 5 8 19 l24 20 -43 43 c-32 34 -39 47 -30 56
9 9 8 16 -5 30 -9 10 -17 23 -17 28 0 5 -24 30 -53 55 -48 42 -54 52 -70 120
-26 106 -32 116 -71 129 -43 14 -45 22 -8 48 64 46 216 93 309 95 35 1 63 5
63 10 0 4 -5 7 -12 7 -6 0 -8 3 -4 7 4 5 14 -1 22 -11 7 -11 17 -17 20 -13 3
3 -11 32 -32 63 -69 102 -175 146 -267 110 -57 -21 -88 -56 -128 -139 -32 -68
-77 -117 -107 -117 -10 0 -2 10 21 25 26 18 48 48 73 98 20 40 46 83 58 95 23
26 87 62 110 62 13 0 12 4 -1 30 -8 18 -12 41 -9 55 4 16 2 25 -5 25 -7 0 -9
3 -6 6 10 10 92 -77 90 -95 -1 -11 21 -27 70 -51 63 -31 78 -43 118 -102 l46
-67 154 119 c151 117 154 119 174 101 36 -32 98 -70 107 -65 4 3 5 -2 2 -10
-7 -17 -20 -21 -26 -8 -1 4 -27 25 -56 46 -43 31 -55 36 -67 26 -12 -10 -13
-16 -4 -26 6 -8 17 -14 24 -14 8 0 15 -4 17 -8 2 -4 18 -18 36 -31 18 -13 31
-25 29 -28 -3 -2 -28 12 -56 32 -45 33 -52 35 -66 22 -13 -14 -11 -18 18 -36
18 -11 41 -29 50 -39 15 -16 15 -18 -3 -18 -10 0 -17 3 -14 7 7 12 -97 81
-112 75 -23 -9 -16 -19 48 -64 33 -24 57 -46 54 -49 -3 -3 -33 15 -66 41 -37
29 -67 46 -76 42 -21 -8 -11 -21 51 -60 29 -19 56 -39 59 -45 15 -23 -12 -9
-70 38 -47 38 -64 47 -77 39 -15 -8 -11 -14 28 -44 26 -19 51 -32 58 -28 7 4
9 3 4 -1 -4 -5 1 -18 10 -29 18 -20 18 -20 -7 -3 -14 9 -32 20 -40 24 -8 4
-28 19 -44 34 -16 15 -35 25 -43 22 -14 -5 -18 -23 -5 -23 13 0 124 -91 118
-98 -4 -3 -19 7 -35 22 -17 16 -34 25 -41 21 -8 -5 0 -17 22 -35 18 -15 31
-31 27 -34 -4 -5 -27 12 -122 90 -20 16 -27 18 -27 5 0 -5 29 -30 65 -56 36
-27 63 -50 61 -52 -2 -3 -35 18 -72 46 l-68 49 -50 -28 c-28 -15 -51 -32 -51
-38 0 -5 27 -31 60 -58 33 -26 63 -52 66 -57 3 -5 17 -7 29 -5 16 2 24 -2 26
-15 4 -26 14 -34 14 -11 0 10 5 26 10 34 8 11 9 8 4 -13 -4 -17 -1 -34 7 -44
12 -15 12 -16 -6 -10 -19 7 -19 6 -2 -7 11 -8 26 -12 35 -9 10 4 13 2 8 -5 -5
-8 -1 -10 10 -5 16 6 15 8 -4 16 -29 13 -24 36 22 88 21 24 33 36 26 27 -10
-15 -10 -18 3 -18 19 0 34 19 39 48 2 18 15 28 58 42 37 13 66 31 90 58 23 25
50 43 79 51 27 8 58 28 85 55 23 24 55 50 73 59 17 9 40 33 52 53 12 20 30 38
41 41 11 3 20 6 20 8 0 1 -16 19 -35 40 -34 36 -35 38 -19 56 10 11 20 15 24
10 3 -6 16 -14 29 -19 22 -8 22 -9 6 -25 -13 -14 -20 -15 -31 -6 -12 10 -13 9
-8 -5 8 -21 26 -20 56 4 14 11 39 25 54 32 28 12 27 12 -29 18 l-58 5 17 23
c11 17 23 23 39 19 22 -4 23 -3 8 20 -8 12 -19 23 -24 23 -4 0 -35 23 -68 50
-34 28 -61 46 -61 41 0 -5 5 -13 10 -16 13 -8 3 -25 -13 -25 -7 0 -6 4 3 10 8
5 11 10 7 10 -14 0 -62 -41 -62 -53 0 -7 -7 -11 -15 -10 -8 1 -33 -14 -55 -33
-22 -20 -35 -34 -29 -31 12 7 129 -82 120 -90 -3 -4 -27 12 -54 34 -68 57 -95
62 -114 21 -1 -4 20 -24 49 -43 47 -31 88 -71 52 -50 -47 27 -108 78 -103 86
8 14 -12 11 -25 -4 -6 -8 -7 -18 -3 -22 4 -5 1 -5 -5 -1 -8 4 -40 -14 -79 -44
-37 -27 -77 -50 -90 -50 -12 0 -35 -5 -51 -12 -15 -6 -62 -12 -103 -13 -41 -1
-117 -8 -168 -14 -112 -15 -112 -15 -173 97 -26 47 -72 107 -125 162 -49 50
-84 96 -84 107 0 17 -76 144 -122 205 -18 23 -181 88 -248 99 -30 4 -65 11
-77 15 -20 5 -23 3 -23 -19 0 -21 12 -33 61 -64 86 -54 176 -127 313 -256 65
-62 125 -116 132 -120 9 -5 14 -27 14 -62 l0 -55 -92 94 c-51 52 -104 107
-118 123 -14 16 -45 44 -69 63 -24 19 -58 48 -75 64 -17 16 -47 40 -66 55 -19
14 -37 28 -40 31 -3 3 -27 22 -53 44 -34 27 -45 41 -36 46 8 6 4 10 -12 13
l-24 4 25 2 c19 1 26 7 28 24 3 33 -21 137 -31 130 -4 -2 -5 -18 -2 -34 6 -26
1 -35 -33 -67 -22 -20 -42 -48 -45 -62 -4 -25 -4 -25 -6 2 -1 20 9 37 34 59
28 26 35 40 35 69 0 20 5 41 11 47 8 8 -3 14 -41 22 -28 6 -60 11 -72 11 -19
0 -20 4 -14 47 4 35 3 44 -5 36 -6 -6 -12 -49 -12 -96 -2 -94 1 -93 -66 -30
-31 29 -38 31 -80 26 -40 -5 -51 -2 -78 21 -17 14 -38 26 -46 26 -28 0 -65
-22 -70 -41 -3 -11 -13 -19 -24 -18 -10 0 -13 3 -5 6 6 2 12 9 12 14 0 6 -8 5
-20 -1 -16 -9 -20 -8 -20 5 0 18 27 85 34 85 19 0 56 -22 51 -30 -4 -6 9 -10
31 -10 23 0 46 -7 58 -19 12 -10 32 -22 46 -26 24 -6 24 -6 -5 19 -41 35 -106
73 -138 81 -25 7 -27 11 -26 59 1 49 1 50 9 16 10 -44 62 -89 126 -113 55 -19
90 -22 99 -7 4 6 -8 10 -28 10 -78 0 -127 32 -168 111 -18 35 -23 62 -24 132
-1 61 -6 91 -15 97 -7 4 -10 15 -7 24 3 8 2 18 -3 21 -13 8 0 35 17 35 9 0 13
6 10 14 -3 8 1 20 9 27 8 6 13 19 12 28 -5 26 79 61 156 65 45 3 64 1 59 -7
-4 -7 0 -8 12 -4 9 4 24 2 33 -5 8 -7 25 -13 36 -13 15 0 21 -6 20 -21 0 -14
4 -20 12 -17 9 3 11 -2 7 -16 -4 -16 -2 -20 10 -15 12 4 16 -5 19 -48 5 -57
-1 -83 -12 -53 -4 10 -6 -4 -6 -32 1 -28 5 -49 9 -46 4 3 1 -12 -7 -32 -9 -21
-16 -47 -15 -59 1 -14 4 -10 10 13 6 18 12 31 15 28 9 -8 -39 -155 -58 -179
l-18 -23 0 39 c0 21 7 65 16 98 8 33 13 63 10 66 -3 3 -6 -2 -6 -11 0 -10 -4
-17 -10 -17 -5 0 -10 -16 -10 -35 0 -41 -5 -43 -31 -12 l-20 22 16 -27 c21
-34 30 -88 15 -88 -6 0 -8 -11 -5 -27 2 -15 0 -30 -6 -34 -8 -4 -8 -12 -1 -24
9 -17 10 -17 16 2 9 29 45 57 99 77 49 19 54 25 35 44 -18 18 -16 70 4 75 9 3
20 18 24 33 4 16 12 32 18 36 8 5 7 8 -1 8 -8 0 -13 14 -13 36 0 29 -3 35 -16
30 -13 -5 -14 1 -8 40 9 60 -16 125 -64 164 -23 19 -31 30 -21 30 9 0 34 -18
55 -40 22 -22 45 -40 52 -40 15 0 16 -12 0 -28 -9 -9 -9 -12 0 -12 6 0 16 8
21 18 13 24 -4 44 -58 72 -34 17 -41 24 -30 32 10 7 2 8 -26 5 -22 -2 -53 1
-69 8 -29 12 -28 12 28 19 32 4 62 4 69 -2 17 -13 77 -23 77 -13 0 20 -47 37
-100 34 -36 -1 -49 1 -40 7 8 5 22 7 31 5 8 -3 24 2 35 11 18 15 18 15 -3 5
-28 -14 -33 -14 -33 2 -1 25 -72 109 -105 123 -34 14 -49 15 -110 7z m-84
-913 c10 -6 19 -17 19 -25 0 -7 6 -15 12 -17 9 -3 7 -13 -6 -34 -19 -29 -19
-29 1 -11 20 17 21 17 31 -10 26 -67 54 -175 49 -193 -3 -11 -2 -18 3 -15 4 3
10 -10 13 -28 3 -17 12 -61 21 -97 9 -36 25 -115 36 -175 11 -61 23 -126 27
-145 l6 -34 -33 24 c-18 14 -58 49 -89 78 -48 47 -53 55 -38 63 9 6 17 15 17
21 0 6 -3 8 -7 5 -9 -10 -32 59 -38 118 -3 28 -7 57 -10 65 -2 8 -7 60 -10
115 -6 102 -19 165 -54 267 l-20 57 25 -10 c14 -5 34 -14 45 -19z m-380 -70
c5 0 20 -24 33 -54 27 -60 76 -137 76 -119 0 7 -5 15 -10 18 -6 4 -8 11 -5 16
4 5 2 9 -4 9 -5 0 -9 9 -8 19 1 18 3 18 30 5 31 -17 95 -83 115 -120 7 -14 17
-22 22 -19 6 3 7 -1 4 -9 -4 -11 -20 3 -56 47 -68 82 -67 81 -73 75 -3 -3 4
-25 15 -51 11 -25 18 -51 15 -59 -3 -8 11 -34 32 -59 60 -69 95 -119 84 -119
-6 0 -17 12 -25 28 -8 15 -25 36 -38 47 -12 12 -31 32 -40 45 -16 24 -16 24
-11 3 5 -20 1 -23 -23 -24 -28 -1 -28 -1 6 -11 29 -8 32 -11 17 -19 -24 -14
-12 -29 24 -29 21 0 29 -5 29 -17 0 -15 -2 -16 -10 -3 -6 9 -10 10 -10 3 0 -6
-15 -14 -32 -16 -19 -2 -6 -5 32 -6 49 -2 59 -5 40 -11 -14 -4 -19 -8 -12 -9
7 -1 10 -5 7 -11 -3 -5 1 -10 9 -10 24 0 19 -17 -6 -24 -22 -5 -22 -6 -4 -19
11 -8 16 -19 12 -26 -4 -7 9 -3 30 8 46 25 54 26 80 5 18 -15 18 -15 -4 -9
-17 5 -29 0 -44 -17 -11 -12 -23 -22 -27 -21 -3 1 -11 -10 -18 -23 -11 -23
-10 -23 23 6 40 34 93 41 115 13 12 -14 12 -16 -1 -11 -18 6 -50 -9 -50 -24 0
-6 -8 -17 -17 -25 -16 -13 -16 -14 9 -9 16 4 28 1 30 -6 2 -6 12 -9 21 -5 19
7 12 37 -9 37 -8 0 -14 4 -14 9 0 5 12 8 26 7 28 -3 116 -75 108 -88 -3 -5 2
-8 10 -8 9 0 16 -4 16 -10 0 -5 7 -10 16 -10 26 0 69 -43 68 -67 -1 -17 4 -23
20 -23 18 -1 17 -3 -9 -17 -16 -10 -34 -16 -38 -15 -4 1 -3 -7 3 -18 6 -11 8
-25 5 -30 -3 -6 4 -10 16 -10 18 0 19 -2 9 -15 -14 -17 -5 -69 11 -60 5 4 9 3
8 -2 -3 -20 2 -27 11 -13 8 13 10 12 10 -3 0 -15 6 -12 33 13 34 33 73 53 87
45 4 -2 10 -16 12 -29 4 -21 2 -24 -21 -22 -30 3 -81 -12 -81 -24 0 -14 32
-21 46 -9 22 18 16 -6 -6 -26 -20 -18 -22 -18 -63 11 -23 16 -57 51 -74 78
-32 47 -33 48 -43 25 -10 -23 -10 -23 -5 4 6 32 1 35 -71 40 -41 3 -51 0 -47
-11 5 -11 -2 -12 -33 -7 -45 8 -104 44 -104 63 0 7 -6 15 -14 18 -20 8 -30 55
-14 65 10 7 9 9 -4 9 -14 0 -32 29 -31 50 0 3 -14 12 -32 20 -18 8 -33 18 -34
23 0 4 -4 7 -8 8 -5 0 -18 10 -31 22 -20 19 -22 29 -20 103 2 45 7 80 12 77 5
-3 6 -33 3 -67 -4 -41 -1 -71 9 -95 16 -38 23 -37 26 2 1 17 8 27 18 27 12 0
13 2 1 9 -8 5 -11 16 -8 25 3 8 2 18 -2 20 -5 3 -8 16 -8 29 0 12 -12 40 -27
61 -14 22 -24 41 -21 44 2 3 -2 10 -11 16 -8 6 -17 27 -20 46 -13 90 -47 146
-39 63 l5 -48 -14 50 c-9 31 -11 52 -4 56 5 3 -2 13 -16 23 -14 9 -28 27 -32
41 -3 14 -9 25 -13 25 -4 0 -3 27 2 61 8 46 13 59 24 55 8 -4 19 -6 24 -6z
m716 -120 c-1 -22 -6 -40 -11 -40 -30 0 40 -221 91 -289 18 -24 33 -50 33 -57
0 -18 51 -56 67 -49 8 2 12 1 9 -3 -8 -13 23 -52 39 -52 19 0 16 49 -5 73 -8
10 -13 20 -10 22 3 2 -4 11 -15 19 -13 10 -15 15 -6 16 7 0 11 6 7 15 -3 8 0
15 6 15 9 0 9 3 0 12 -7 7 -12 19 -12 28 0 10 3 11 8 3 7 -12 82 -65 82 -59 0
2 -7 20 -16 41 -8 20 -13 39 -11 41 6 7 38 -63 40 -87 1 -13 21 -31 62 -53
103 -58 129 -103 73 -126 -13 -5 -17 -9 -10 -9 21 -1 13 -27 -8 -27 -14 0 -33
21 -63 68 -23 37 -45 68 -50 68 -4 0 -21 15 -37 33 -22 24 -29 28 -30 15 0 -9
6 -21 13 -25 16 -10 58 -113 51 -124 -3 -5 -13 -9 -22 -9 -25 0 -46 -16 -37
-29 5 -9 10 -9 21 0 20 17 26 6 10 -17 -14 -18 -15 -18 -35 0 -11 10 -23 32
-27 50 -10 47 -32 84 -54 91 -33 11 -118 149 -151 245 -31 93 -35 142 -18 203
13 48 17 47 16 -3z m-12 -371 c4 -5 11 -9 16 -9 6 0 7 5 4 10 -10 16 17 11 37
-7 20 -18 25 -38 6 -27 -7 4 -8 3 -4 -5 9 -14 -17 -41 -39 -41 -9 0 -13 -5 -9
-11 3 -6 15 -9 25 -6 11 3 17 2 14 -3 -2 -4 12 -10 33 -14 20 -3 38 -1 40 4 7
21 72 -22 72 -48 0 -10 -8 -13 -25 -9 -25 4 -25 4 -9 -14 16 -18 16 -19 -4
-19 -11 0 -23 -4 -26 -9 -7 -10 -85 -5 -120 9 -42 16 -95 90 -65 90 5 0 9 -4
9 -10 0 -5 10 -15 23 -21 19 -10 19 -8 -5 18 -16 16 -28 34 -28 41 0 7 -4 12
-10 12 -5 0 -10 5 -10 10 0 7 6 7 20 0 16 -9 18 -8 14 5 -4 8 -10 15 -16 15
-11 0 -6 32 7 43 6 6 6 10 -2 14 -7 2 -13 8 -13 13 0 10 57 -17 65 -31z m539
-510 c33 -16 67 -29 78 -29 10 0 18 -6 18 -14 0 -8 9 -18 20 -21 11 -3 20 -15
20 -26 0 -18 -2 -18 -22 -5 -13 7 -45 17 -73 21 -27 4 -59 12 -70 18 -11 6
-22 12 -25 12 -3 1 -16 5 -29 9 -14 5 -27 4 -35 -4 -8 -8 -6 -9 8 -4 15 6 18
4 13 -8 -4 -12 -1 -14 15 -10 11 2 23 0 27 -5 3 -6 39 -15 79 -21 73 -10 118
-34 105 -55 -3 -6 -1 -7 5 -3 14 8 26 -19 35 -76 5 -33 3 -37 -16 -35 -23 2
-69 41 -60 51 8 8 -47 27 -58 21 -5 -4 -6 1 -3 9 5 13 -1 16 -30 16 -48 0 -45
-17 7 -40 56 -25 95 -66 79 -82 -15 -15 -16 -28 -2 -28 6 0 10 7 10 15 0 11 9
15 31 13 35 -3 46 -15 30 -31 -8 -8 -11 -7 -11 2 0 11 -3 11 -15 1 -23 -19
-18 -33 10 -26 14 4 25 3 25 -1 0 -13 -44 -37 -62 -34 -10 1 -18 -3 -18 -9 0
-6 4 -9 8 -6 4 2 23 -9 41 -25 19 -16 36 -28 38 -26 6 7 -9 37 -18 37 -5 0 -9
5 -9 12 0 9 3 9 11 1 6 -6 18 -9 25 -6 10 4 12 0 8 -11 -5 -12 -2 -15 10 -10
9 3 16 12 16 19 0 7 13 15 29 17 17 2 28 1 25 -4 -3 -4 -11 -8 -18 -8 -7 0
-21 -9 -32 -21 -30 -33 -51 -41 -73 -27 -15 9 -23 9 -35 -1 -15 -12 -15 -15 1
-27 10 -7 14 -13 8 -13 -5 -1 -21 8 -35 19 -20 15 -21 20 -8 20 29 0 31 21 5
46 -15 14 -29 20 -32 14 -3 -6 -11 -10 -17 -10 -6 0 -5 6 3 16 10 13 10 17 -2
25 -8 5 -22 7 -32 5 -14 -3 -17 0 -13 11 5 12 4 13 -7 5 -11 -9 -13 -7 -11 11
1 12 3 23 3 25 2 7 59 -29 80 -51 13 -14 29 -23 37 -20 25 10 15 28 -27 46
-41 18 -41 18 -23 39 19 21 19 21 -3 9 -31 -16 -63 -14 -104 8 -34 19 -35 19
-35 -2 0 -19 103 -130 132 -141 15 -6 19 -42 6 -50 -11 -6 -87 30 -103 50 -6
8 -16 14 -21 14 -6 0 -19 11 -30 25 -10 13 -40 35 -66 47 -26 12 -51 24 -56
26 -5 3 -6 0 -2 -7 9 -14 -7 -14 -55 1 -22 6 -39 15 -39 20 0 5 -5 6 -10 3 -6
-3 -13 1 -16 9 -3 9 -10 14 -14 11 -11 -7 -120 74 -120 89 0 6 4 18 10 26 7
12 12 11 31 -5 l23 -20 -17 28 c-16 25 -16 30 -2 57 9 17 22 30 30 30 8 0 15
6 15 14 0 16 39 33 90 40 19 2 51 9 70 15 42 13 43 13 35 2 -6 -11 65 -3 78 9
14 12 71 -1 131 -31z m-614 -184 c32 -4 41 -2 30 5 -13 8 -13 10 2 10 25 0 31
-18 10 -29 -11 -6 -21 -8 -24 -6 -2 3 -1 -23 4 -58 4 -34 10 -91 14 -127 3
-36 10 -69 15 -75 14 -14 11 -31 -3 -17 -17 17 -45 15 -57 -5 -8 -16 -11 -15
-20 10 -6 16 -12 51 -13 79 -1 27 -6 52 -10 54 -4 3 -5 11 -1 19 3 8 1 15 -4
15 -15 0 -19 50 -8 90 l6 25 -14 -24 -14 -23 -6 23 c-12 42 -9 49 21 44 15 -2
47 -7 72 -10z m-210 -369 c0 -8 -13 -24 -30 -36 -16 -12 -30 -26 -30 -31 0
-17 29 -9 50 13 19 21 20 21 17 3 -2 -11 -9 -31 -15 -45 -9 -22 -11 -22 -12
-5 -1 17 -3 17 -11 -5 -8 -18 -12 -21 -18 -11 -7 11 -13 9 -30 -8 -25 -25 -26
-37 -6 -57 13 -14 15 -13 16 8 l2 23 4 -23 c2 -12 9 -20 14 -17 5 4 9 1 9 -4
0 -6 4 -11 9 -11 5 0 7 8 4 19 -7 26 24 36 37 11 5 -10 10 -26 10 -34 0 -21
14 -20 35 0 15 15 15 14 9 -12 -9 -36 -27 -49 -36 -26 -6 15 -7 15 -7 1 -1 -9
-12 -24 -26 -33 -14 -9 -24 -20 -21 -24 3 -5 1 -14 -5 -22 -6 -11 -9 -7 -9 15
0 17 4 37 9 45 14 21 3 31 -19 17 -11 -6 -20 -22 -20 -34 0 -13 -4 -23 -9 -23
-6 0 -6 12 0 32 5 18 9 34 9 35 0 1 -6 0 -14 -3 -8 -3 -16 -15 -19 -26 -3 -11
-10 -17 -16 -14 -7 5 -7 15 0 33 11 31 7 39 -11 18 -14 -17 -40 -20 -40 -4 0
6 7 9 15 5 10 -3 15 1 15 13 0 11 6 21 12 23 7 3 13 11 13 19 1 39 18 119 25
119 4 0 6 -9 3 -20 -4 -14 -1 -19 8 -15 8 3 15 17 16 31 0 15 12 37 25 50 27
27 38 30 38 10z"/>
<path d="M3170 2516 c0 -8 5 -18 11 -22 8 -4 7 -9 -2 -15 -21 -13 -29 -11 -29
7 0 10 -5 14 -16 10 -8 -3 -12 -2 -9 4 3 6 1 10 -4 10 -15 0 -14 -27 0 -36 8
-4 3 -11 -12 -19 -17 -10 -27 -10 -41 -1 -20 12 -25 31 -5 20 10 -6 10 -4 0 7
-20 20 -41 -4 -23 -26 12 -14 11 -18 -1 -26 -23 -14 -29 -11 -29 16 0 14 -5
25 -11 25 -14 0 -39 -25 -39 -39 0 -15 17 -14 23 2 3 7 6 5 6 -5 1 -9 -13 -25
-30 -35 -23 -13 -29 -24 -26 -40 3 -17 -5 -30 -29 -48 -19 -15 -39 -23 -44
-20 -6 3 -10 4 -10 0 0 -8 52 -28 72 -27 9 0 20 -8 23 -18 3 -11 19 -30 35
-43 16 -14 27 -27 24 -29 -2 -3 3 -11 12 -19 14 -11 16 -10 12 11 -3 21 6 29
72 61 41 20 100 47 130 60 59 26 110 64 110 82 -1 7 -6 5 -13 -4 -21 -28 -61
-48 -117 -60 -30 -6 -69 -19 -87 -29 -19 -11 -35 -15 -38 -9 -11 17 -23 9 -18
-12 5 -19 3 -18 -22 5 -26 25 -29 25 -47 10 -10 -10 -18 -12 -18 -6 0 6 6 13
13 16 8 3 5 11 -12 25 -12 12 -28 18 -35 14 -6 -4 -5 1 3 10 10 13 11 20 2 31
-10 12 -8 17 9 26 12 6 34 14 48 16 26 5 26 5 7 -10 -20 -15 -20 -15 4 -16 19
0 23 4 19 24 -4 18 1 27 17 34 26 12 51 0 40 -18 -6 -9 -4 -11 4 -6 7 5 10 14
7 22 -3 9 4 19 19 26 28 13 45 4 27 -14 -17 -17 -15 -24 8 -25 22 -2 27 12 8
20 -10 4 -10 6 -1 6 7 1 10 8 7 16 -4 9 3 16 19 20 19 5 23 11 19 31 -5 26
-42 35 -42 10z"/>
<path d="M2561 1298 c-7 -21 -32 -58 -56 -82 -46 -48 -91 -73 -200 -113 -120
-44 -173 -87 -200 -162 -20 -57 -19 -85 2 -43 8 18 32 47 52 64 20 17 35 34
34 37 -3 10 29 41 41 41 6 0 0 -9 -14 -20 -31 -24 -22 -25 24 -3 19 9 33 20
31 24 -3 4 3 5 12 3 26 -7 156 59 213 107 61 52 93 112 81 154 l-8 30 -12 -37z"/>
</g>
</svg>
